G04 (created by PCBNEW (2013-07-07 BZR 4022)-stable) date 1/23/2014 9:04:30 AM*
%MOIN*%
G04 Gerber Fmt 3.4, Leading zero omitted, Abs format*
%FSLAX34Y34*%
G01*
G70*
G90*
G04 APERTURE LIST*
%ADD10C,0.00590551*%
%ADD11R,0.045X0.02*%
%ADD12R,0.06X0.08*%
%ADD13C,0.055*%
%ADD14R,0.0629X0.0709*%
%ADD15C,0.12*%
%ADD16C,0.035*%
%ADD17C,0.01*%
G04 APERTURE END LIST*
G54D10*
G54D11*
X59250Y-57450D03*
X59250Y-57950D03*
X59250Y-58450D03*
X59250Y-58950D03*
X56750Y-58950D03*
X56750Y-58450D03*
X56750Y-57950D03*
X56750Y-57450D03*
G54D12*
X57350Y-55200D03*
X58650Y-55200D03*
X59650Y-60800D03*
X58350Y-60800D03*
X55750Y-54000D03*
X57050Y-54000D03*
G54D13*
X61400Y-59900D03*
X61400Y-60900D03*
G54D14*
X58641Y-53900D03*
X59759Y-53900D03*
G54D15*
X53750Y-56800D03*
X62250Y-56800D03*
G54D16*
X56800Y-56700D03*
X59700Y-55100D03*
G54D17*
X56750Y-57450D02*
X56750Y-56750D01*
X56750Y-56750D02*
X56800Y-56700D01*
X59759Y-54000D02*
X59759Y-55041D01*
X59759Y-55041D02*
X59700Y-55100D01*
X58650Y-55200D02*
X59600Y-55200D01*
X59600Y-55200D02*
X59700Y-55100D01*
X58350Y-58900D02*
X58350Y-58850D01*
X58750Y-58450D02*
X59250Y-58450D01*
X58350Y-58850D02*
X58750Y-58450D01*
X58350Y-58450D02*
X58350Y-58900D01*
X58350Y-58900D02*
X58350Y-60800D01*
X57350Y-55200D02*
X57350Y-56150D01*
X57350Y-57950D02*
X56750Y-57950D01*
X57350Y-56150D02*
X57900Y-56700D01*
X57700Y-57600D02*
X57700Y-57800D01*
X57700Y-57800D02*
X58350Y-58450D01*
X57900Y-57400D02*
X57700Y-57600D01*
X57700Y-57600D02*
X57350Y-57950D01*
X57900Y-56700D02*
X57900Y-57400D01*
X57050Y-54000D02*
X58641Y-54000D01*
X56750Y-58450D02*
X56050Y-58450D01*
X55600Y-54150D02*
X55750Y-54000D01*
X55600Y-58000D02*
X55600Y-54150D01*
X56050Y-58450D02*
X55600Y-58000D01*
X59650Y-60800D02*
X61300Y-60800D01*
X61300Y-60800D02*
X61400Y-60900D01*
X59650Y-60800D02*
X59650Y-59950D01*
X59750Y-57950D02*
X59250Y-57950D01*
X60200Y-58400D02*
X59750Y-57950D01*
X60200Y-59400D02*
X60200Y-58400D01*
X59650Y-59950D02*
X60200Y-59400D01*
G54D10*
G36*
X62730Y-62730D02*
X61929Y-62730D01*
X61929Y-59975D01*
X61918Y-59767D01*
X61860Y-59627D01*
X61767Y-59602D01*
X61697Y-59673D01*
X61697Y-59532D01*
X61672Y-59439D01*
X61475Y-59370D01*
X61267Y-59381D01*
X61127Y-59439D01*
X61102Y-59532D01*
X61400Y-59829D01*
X61697Y-59532D01*
X61697Y-59673D01*
X61470Y-59900D01*
X61767Y-60197D01*
X61860Y-60172D01*
X61929Y-59975D01*
X61929Y-62730D01*
X61925Y-62730D01*
X61925Y-60796D01*
X61845Y-60603D01*
X61697Y-60455D01*
X61571Y-60402D01*
X61672Y-60360D01*
X61697Y-60267D01*
X61400Y-59970D01*
X61329Y-60041D01*
X61329Y-59900D01*
X61032Y-59602D01*
X60939Y-59627D01*
X60870Y-59824D01*
X60881Y-60032D01*
X60939Y-60172D01*
X61032Y-60197D01*
X61329Y-59900D01*
X61329Y-60041D01*
X61102Y-60267D01*
X61127Y-60360D01*
X61237Y-60399D01*
X61103Y-60454D01*
X61057Y-60500D01*
X60200Y-60500D01*
X60200Y-60350D01*
X60162Y-60258D01*
X60091Y-60188D01*
X59999Y-60150D01*
X59950Y-60150D01*
X59950Y-60074D01*
X60412Y-59612D01*
X60412Y-59612D01*
X60477Y-59514D01*
X60499Y-59400D01*
X60500Y-59400D01*
X60500Y-58400D01*
X60477Y-58285D01*
X60412Y-58187D01*
X59962Y-57737D01*
X59864Y-57672D01*
X59750Y-57650D01*
X59704Y-57650D01*
X59725Y-57599D01*
X59725Y-57300D01*
X59687Y-57208D01*
X59616Y-57138D01*
X59524Y-57100D01*
X59425Y-57099D01*
X59362Y-57100D01*
X59300Y-57162D01*
X59300Y-57400D01*
X59662Y-57400D01*
X59725Y-57337D01*
X59725Y-57300D01*
X59725Y-57599D01*
X59725Y-57562D01*
X59662Y-57500D01*
X59300Y-57500D01*
X59300Y-57507D01*
X59200Y-57507D01*
X59200Y-57500D01*
X59200Y-57400D01*
X59200Y-57162D01*
X59137Y-57100D01*
X59074Y-57099D01*
X58975Y-57100D01*
X58883Y-57138D01*
X58812Y-57208D01*
X58774Y-57300D01*
X58775Y-57337D01*
X58837Y-57400D01*
X59200Y-57400D01*
X59200Y-57500D01*
X58837Y-57500D01*
X58775Y-57562D01*
X58774Y-57599D01*
X58812Y-57691D01*
X58821Y-57699D01*
X58813Y-57708D01*
X58775Y-57800D01*
X58774Y-57899D01*
X58774Y-58099D01*
X58795Y-58150D01*
X58750Y-58150D01*
X58635Y-58172D01*
X58552Y-58228D01*
X58024Y-57700D01*
X58112Y-57612D01*
X58112Y-57612D01*
X58177Y-57514D01*
X58199Y-57400D01*
X58200Y-57400D01*
X58200Y-56700D01*
X58177Y-56585D01*
X58112Y-56487D01*
X58112Y-56487D01*
X57650Y-56025D01*
X57650Y-55850D01*
X57699Y-55850D01*
X57791Y-55812D01*
X57861Y-55741D01*
X57899Y-55649D01*
X57900Y-55550D01*
X57900Y-54750D01*
X57862Y-54658D01*
X57791Y-54588D01*
X57699Y-54550D01*
X57600Y-54549D01*
X57553Y-54549D01*
X57561Y-54541D01*
X57599Y-54449D01*
X57600Y-54350D01*
X57600Y-54300D01*
X58076Y-54300D01*
X58076Y-54304D01*
X58114Y-54395D01*
X58184Y-54466D01*
X58276Y-54504D01*
X58376Y-54504D01*
X59005Y-54504D01*
X59096Y-54466D01*
X59167Y-54396D01*
X59200Y-54317D01*
X59232Y-54395D01*
X59302Y-54466D01*
X59394Y-54504D01*
X59459Y-54504D01*
X59459Y-54740D01*
X59339Y-54858D01*
X59322Y-54900D01*
X59200Y-54900D01*
X59200Y-54750D01*
X59162Y-54658D01*
X59091Y-54588D01*
X58999Y-54550D01*
X58900Y-54549D01*
X58300Y-54549D01*
X58208Y-54587D01*
X58138Y-54658D01*
X58100Y-54750D01*
X58099Y-54849D01*
X58099Y-55649D01*
X58137Y-55741D01*
X58208Y-55811D01*
X58300Y-55849D01*
X58399Y-55850D01*
X58999Y-55850D01*
X59091Y-55812D01*
X59161Y-55741D01*
X59199Y-55649D01*
X59200Y-55550D01*
X59200Y-55500D01*
X59555Y-55500D01*
X59615Y-55524D01*
X59784Y-55525D01*
X59940Y-55460D01*
X60060Y-55341D01*
X60124Y-55184D01*
X60125Y-55015D01*
X60060Y-54859D01*
X60059Y-54858D01*
X60059Y-54504D01*
X60123Y-54504D01*
X60214Y-54466D01*
X60285Y-54396D01*
X60323Y-54304D01*
X60323Y-54204D01*
X60323Y-53495D01*
X60285Y-53404D01*
X60215Y-53333D01*
X60123Y-53295D01*
X60023Y-53295D01*
X59394Y-53295D01*
X59303Y-53333D01*
X59232Y-53403D01*
X59199Y-53482D01*
X59167Y-53404D01*
X59097Y-53333D01*
X59005Y-53295D01*
X58905Y-53295D01*
X58276Y-53295D01*
X58185Y-53333D01*
X58114Y-53403D01*
X58076Y-53495D01*
X58076Y-53595D01*
X58076Y-53700D01*
X57600Y-53700D01*
X57600Y-53550D01*
X57562Y-53458D01*
X57491Y-53388D01*
X57399Y-53350D01*
X57300Y-53349D01*
X56700Y-53349D01*
X56608Y-53387D01*
X56538Y-53458D01*
X56500Y-53550D01*
X56499Y-53649D01*
X56499Y-54449D01*
X56537Y-54541D01*
X56608Y-54611D01*
X56700Y-54649D01*
X56799Y-54650D01*
X56846Y-54650D01*
X56838Y-54658D01*
X56800Y-54750D01*
X56799Y-54849D01*
X56799Y-55649D01*
X56837Y-55741D01*
X56908Y-55811D01*
X57000Y-55849D01*
X57050Y-55849D01*
X57050Y-56150D01*
X57072Y-56264D01*
X57137Y-56362D01*
X57600Y-56824D01*
X57600Y-57275D01*
X57487Y-57387D01*
X57487Y-57387D01*
X57225Y-57650D01*
X57204Y-57650D01*
X57224Y-57599D01*
X57225Y-57500D01*
X57225Y-57300D01*
X57187Y-57208D01*
X57116Y-57138D01*
X57050Y-57110D01*
X57050Y-57050D01*
X57160Y-56941D01*
X57224Y-56784D01*
X57225Y-56615D01*
X57160Y-56459D01*
X57041Y-56339D01*
X56884Y-56275D01*
X56715Y-56274D01*
X56559Y-56339D01*
X56439Y-56458D01*
X56375Y-56615D01*
X56374Y-56784D01*
X56439Y-56940D01*
X56450Y-56950D01*
X56450Y-57110D01*
X56383Y-57137D01*
X56313Y-57208D01*
X56275Y-57300D01*
X56274Y-57399D01*
X56274Y-57599D01*
X56312Y-57691D01*
X56321Y-57699D01*
X56313Y-57708D01*
X56275Y-57800D01*
X56274Y-57899D01*
X56274Y-58099D01*
X56295Y-58150D01*
X56174Y-58150D01*
X55900Y-57875D01*
X55900Y-54650D01*
X56099Y-54650D01*
X56191Y-54612D01*
X56261Y-54541D01*
X56299Y-54449D01*
X56300Y-54350D01*
X56300Y-53550D01*
X56262Y-53458D01*
X56191Y-53388D01*
X56099Y-53350D01*
X56000Y-53349D01*
X55400Y-53349D01*
X55308Y-53387D01*
X55238Y-53458D01*
X55200Y-53550D01*
X55199Y-53649D01*
X55199Y-54449D01*
X55237Y-54541D01*
X55300Y-54603D01*
X55300Y-58000D01*
X55322Y-58114D01*
X55387Y-58212D01*
X55837Y-58662D01*
X55935Y-58727D01*
X56050Y-58750D01*
X56295Y-58750D01*
X56274Y-58800D01*
X56275Y-58837D01*
X56337Y-58900D01*
X56700Y-58900D01*
X56700Y-58892D01*
X56800Y-58892D01*
X56800Y-58900D01*
X57162Y-58900D01*
X57225Y-58837D01*
X57225Y-58800D01*
X57187Y-58708D01*
X57178Y-58700D01*
X57186Y-58691D01*
X57224Y-58599D01*
X57225Y-58500D01*
X57225Y-58300D01*
X57204Y-58250D01*
X57350Y-58250D01*
X57350Y-58249D01*
X57464Y-58227D01*
X57464Y-58227D01*
X57562Y-58162D01*
X57599Y-58124D01*
X58050Y-58574D01*
X58050Y-58850D01*
X58050Y-58900D01*
X58050Y-60149D01*
X58000Y-60149D01*
X57908Y-60187D01*
X57838Y-60258D01*
X57800Y-60350D01*
X57799Y-60449D01*
X57799Y-61249D01*
X57837Y-61341D01*
X57908Y-61411D01*
X58000Y-61449D01*
X58099Y-61450D01*
X58699Y-61450D01*
X58791Y-61412D01*
X58861Y-61341D01*
X58899Y-61249D01*
X58900Y-61150D01*
X58900Y-60350D01*
X58862Y-60258D01*
X58791Y-60188D01*
X58699Y-60150D01*
X58650Y-60150D01*
X58650Y-58974D01*
X58775Y-58849D01*
X58774Y-58899D01*
X58774Y-59099D01*
X58812Y-59191D01*
X58883Y-59261D01*
X58975Y-59299D01*
X59074Y-59300D01*
X59524Y-59300D01*
X59616Y-59262D01*
X59686Y-59191D01*
X59724Y-59099D01*
X59725Y-59000D01*
X59725Y-58800D01*
X59687Y-58708D01*
X59678Y-58700D01*
X59686Y-58691D01*
X59724Y-58599D01*
X59725Y-58500D01*
X59725Y-58349D01*
X59900Y-58524D01*
X59900Y-59275D01*
X59437Y-59737D01*
X59372Y-59835D01*
X59350Y-59950D01*
X59350Y-60149D01*
X59300Y-60149D01*
X59208Y-60187D01*
X59138Y-60258D01*
X59100Y-60350D01*
X59099Y-60449D01*
X59099Y-61249D01*
X59137Y-61341D01*
X59208Y-61411D01*
X59300Y-61449D01*
X59399Y-61450D01*
X59999Y-61450D01*
X60091Y-61412D01*
X60161Y-61341D01*
X60199Y-61249D01*
X60200Y-61150D01*
X60200Y-61100D01*
X60914Y-61100D01*
X60954Y-61197D01*
X61102Y-61344D01*
X61295Y-61424D01*
X61503Y-61425D01*
X61697Y-61345D01*
X61844Y-61197D01*
X61924Y-61004D01*
X61925Y-60796D01*
X61925Y-62730D01*
X57225Y-62730D01*
X57225Y-59099D01*
X57225Y-59062D01*
X57162Y-59000D01*
X56800Y-59000D01*
X56800Y-59237D01*
X56862Y-59300D01*
X56925Y-59300D01*
X57024Y-59299D01*
X57116Y-59261D01*
X57187Y-59191D01*
X57225Y-59099D01*
X57225Y-62730D01*
X56700Y-62730D01*
X56700Y-59237D01*
X56700Y-59000D01*
X56337Y-59000D01*
X56275Y-59062D01*
X56274Y-59099D01*
X56312Y-59191D01*
X56383Y-59261D01*
X56475Y-59299D01*
X56574Y-59300D01*
X56637Y-59300D01*
X56700Y-59237D01*
X56700Y-62730D01*
X54602Y-62730D01*
X54602Y-56953D01*
X54596Y-56615D01*
X54479Y-56331D01*
X54352Y-56267D01*
X53820Y-56800D01*
X54352Y-57332D01*
X54479Y-57268D01*
X54602Y-56953D01*
X54602Y-62730D01*
X53269Y-62730D01*
X53269Y-57505D01*
X53281Y-57529D01*
X53596Y-57652D01*
X53934Y-57646D01*
X54218Y-57529D01*
X54282Y-57402D01*
X53750Y-56870D01*
X53744Y-56876D01*
X53673Y-56805D01*
X53679Y-56800D01*
X53673Y-56794D01*
X53744Y-56723D01*
X53750Y-56729D01*
X54282Y-56197D01*
X54218Y-56070D01*
X53903Y-55947D01*
X53565Y-55953D01*
X53281Y-56070D01*
X53269Y-56094D01*
X53269Y-53269D01*
X62730Y-53269D01*
X62730Y-56094D01*
X62718Y-56070D01*
X62403Y-55947D01*
X62065Y-55953D01*
X61781Y-56070D01*
X61717Y-56197D01*
X62250Y-56729D01*
X62255Y-56723D01*
X62326Y-56794D01*
X62320Y-56800D01*
X62326Y-56805D01*
X62255Y-56876D01*
X62250Y-56870D01*
X62179Y-56941D01*
X62179Y-56800D01*
X61647Y-56267D01*
X61520Y-56331D01*
X61397Y-56646D01*
X61403Y-56984D01*
X61520Y-57268D01*
X61647Y-57332D01*
X62179Y-56800D01*
X62179Y-56941D01*
X61717Y-57402D01*
X61781Y-57529D01*
X62096Y-57652D01*
X62434Y-57646D01*
X62718Y-57529D01*
X62730Y-57505D01*
X62730Y-62730D01*
X62730Y-62730D01*
G37*
G54D17*
X62730Y-62730D02*
X61929Y-62730D01*
X61929Y-59975D01*
X61918Y-59767D01*
X61860Y-59627D01*
X61767Y-59602D01*
X61697Y-59673D01*
X61697Y-59532D01*
X61672Y-59439D01*
X61475Y-59370D01*
X61267Y-59381D01*
X61127Y-59439D01*
X61102Y-59532D01*
X61400Y-59829D01*
X61697Y-59532D01*
X61697Y-59673D01*
X61470Y-59900D01*
X61767Y-60197D01*
X61860Y-60172D01*
X61929Y-59975D01*
X61929Y-62730D01*
X61925Y-62730D01*
X61925Y-60796D01*
X61845Y-60603D01*
X61697Y-60455D01*
X61571Y-60402D01*
X61672Y-60360D01*
X61697Y-60267D01*
X61400Y-59970D01*
X61329Y-60041D01*
X61329Y-59900D01*
X61032Y-59602D01*
X60939Y-59627D01*
X60870Y-59824D01*
X60881Y-60032D01*
X60939Y-60172D01*
X61032Y-60197D01*
X61329Y-59900D01*
X61329Y-60041D01*
X61102Y-60267D01*
X61127Y-60360D01*
X61237Y-60399D01*
X61103Y-60454D01*
X61057Y-60500D01*
X60200Y-60500D01*
X60200Y-60350D01*
X60162Y-60258D01*
X60091Y-60188D01*
X59999Y-60150D01*
X59950Y-60150D01*
X59950Y-60074D01*
X60412Y-59612D01*
X60412Y-59612D01*
X60477Y-59514D01*
X60499Y-59400D01*
X60500Y-59400D01*
X60500Y-58400D01*
X60477Y-58285D01*
X60412Y-58187D01*
X59962Y-57737D01*
X59864Y-57672D01*
X59750Y-57650D01*
X59704Y-57650D01*
X59725Y-57599D01*
X59725Y-57300D01*
X59687Y-57208D01*
X59616Y-57138D01*
X59524Y-57100D01*
X59425Y-57099D01*
X59362Y-57100D01*
X59300Y-57162D01*
X59300Y-57400D01*
X59662Y-57400D01*
X59725Y-57337D01*
X59725Y-57300D01*
X59725Y-57599D01*
X59725Y-57562D01*
X59662Y-57500D01*
X59300Y-57500D01*
X59300Y-57507D01*
X59200Y-57507D01*
X59200Y-57500D01*
X59200Y-57400D01*
X59200Y-57162D01*
X59137Y-57100D01*
X59074Y-57099D01*
X58975Y-57100D01*
X58883Y-57138D01*
X58812Y-57208D01*
X58774Y-57300D01*
X58775Y-57337D01*
X58837Y-57400D01*
X59200Y-57400D01*
X59200Y-57500D01*
X58837Y-57500D01*
X58775Y-57562D01*
X58774Y-57599D01*
X58812Y-57691D01*
X58821Y-57699D01*
X58813Y-57708D01*
X58775Y-57800D01*
X58774Y-57899D01*
X58774Y-58099D01*
X58795Y-58150D01*
X58750Y-58150D01*
X58635Y-58172D01*
X58552Y-58228D01*
X58024Y-57700D01*
X58112Y-57612D01*
X58112Y-57612D01*
X58177Y-57514D01*
X58199Y-57400D01*
X58200Y-57400D01*
X58200Y-56700D01*
X58177Y-56585D01*
X58112Y-56487D01*
X58112Y-56487D01*
X57650Y-56025D01*
X57650Y-55850D01*
X57699Y-55850D01*
X57791Y-55812D01*
X57861Y-55741D01*
X57899Y-55649D01*
X57900Y-55550D01*
X57900Y-54750D01*
X57862Y-54658D01*
X57791Y-54588D01*
X57699Y-54550D01*
X57600Y-54549D01*
X57553Y-54549D01*
X57561Y-54541D01*
X57599Y-54449D01*
X57600Y-54350D01*
X57600Y-54300D01*
X58076Y-54300D01*
X58076Y-54304D01*
X58114Y-54395D01*
X58184Y-54466D01*
X58276Y-54504D01*
X58376Y-54504D01*
X59005Y-54504D01*
X59096Y-54466D01*
X59167Y-54396D01*
X59200Y-54317D01*
X59232Y-54395D01*
X59302Y-54466D01*
X59394Y-54504D01*
X59459Y-54504D01*
X59459Y-54740D01*
X59339Y-54858D01*
X59322Y-54900D01*
X59200Y-54900D01*
X59200Y-54750D01*
X59162Y-54658D01*
X59091Y-54588D01*
X58999Y-54550D01*
X58900Y-54549D01*
X58300Y-54549D01*
X58208Y-54587D01*
X58138Y-54658D01*
X58100Y-54750D01*
X58099Y-54849D01*
X58099Y-55649D01*
X58137Y-55741D01*
X58208Y-55811D01*
X58300Y-55849D01*
X58399Y-55850D01*
X58999Y-55850D01*
X59091Y-55812D01*
X59161Y-55741D01*
X59199Y-55649D01*
X59200Y-55550D01*
X59200Y-55500D01*
X59555Y-55500D01*
X59615Y-55524D01*
X59784Y-55525D01*
X59940Y-55460D01*
X60060Y-55341D01*
X60124Y-55184D01*
X60125Y-55015D01*
X60060Y-54859D01*
X60059Y-54858D01*
X60059Y-54504D01*
X60123Y-54504D01*
X60214Y-54466D01*
X60285Y-54396D01*
X60323Y-54304D01*
X60323Y-54204D01*
X60323Y-53495D01*
X60285Y-53404D01*
X60215Y-53333D01*
X60123Y-53295D01*
X60023Y-53295D01*
X59394Y-53295D01*
X59303Y-53333D01*
X59232Y-53403D01*
X59199Y-53482D01*
X59167Y-53404D01*
X59097Y-53333D01*
X59005Y-53295D01*
X58905Y-53295D01*
X58276Y-53295D01*
X58185Y-53333D01*
X58114Y-53403D01*
X58076Y-53495D01*
X58076Y-53595D01*
X58076Y-53700D01*
X57600Y-53700D01*
X57600Y-53550D01*
X57562Y-53458D01*
X57491Y-53388D01*
X57399Y-53350D01*
X57300Y-53349D01*
X56700Y-53349D01*
X56608Y-53387D01*
X56538Y-53458D01*
X56500Y-53550D01*
X56499Y-53649D01*
X56499Y-54449D01*
X56537Y-54541D01*
X56608Y-54611D01*
X56700Y-54649D01*
X56799Y-54650D01*
X56846Y-54650D01*
X56838Y-54658D01*
X56800Y-54750D01*
X56799Y-54849D01*
X56799Y-55649D01*
X56837Y-55741D01*
X56908Y-55811D01*
X57000Y-55849D01*
X57050Y-55849D01*
X57050Y-56150D01*
X57072Y-56264D01*
X57137Y-56362D01*
X57600Y-56824D01*
X57600Y-57275D01*
X57487Y-57387D01*
X57487Y-57387D01*
X57225Y-57650D01*
X57204Y-57650D01*
X57224Y-57599D01*
X57225Y-57500D01*
X57225Y-57300D01*
X57187Y-57208D01*
X57116Y-57138D01*
X57050Y-57110D01*
X57050Y-57050D01*
X57160Y-56941D01*
X57224Y-56784D01*
X57225Y-56615D01*
X57160Y-56459D01*
X57041Y-56339D01*
X56884Y-56275D01*
X56715Y-56274D01*
X56559Y-56339D01*
X56439Y-56458D01*
X56375Y-56615D01*
X56374Y-56784D01*
X56439Y-56940D01*
X56450Y-56950D01*
X56450Y-57110D01*
X56383Y-57137D01*
X56313Y-57208D01*
X56275Y-57300D01*
X56274Y-57399D01*
X56274Y-57599D01*
X56312Y-57691D01*
X56321Y-57699D01*
X56313Y-57708D01*
X56275Y-57800D01*
X56274Y-57899D01*
X56274Y-58099D01*
X56295Y-58150D01*
X56174Y-58150D01*
X55900Y-57875D01*
X55900Y-54650D01*
X56099Y-54650D01*
X56191Y-54612D01*
X56261Y-54541D01*
X56299Y-54449D01*
X56300Y-54350D01*
X56300Y-53550D01*
X56262Y-53458D01*
X56191Y-53388D01*
X56099Y-53350D01*
X56000Y-53349D01*
X55400Y-53349D01*
X55308Y-53387D01*
X55238Y-53458D01*
X55200Y-53550D01*
X55199Y-53649D01*
X55199Y-54449D01*
X55237Y-54541D01*
X55300Y-54603D01*
X55300Y-58000D01*
X55322Y-58114D01*
X55387Y-58212D01*
X55837Y-58662D01*
X55935Y-58727D01*
X56050Y-58750D01*
X56295Y-58750D01*
X56274Y-58800D01*
X56275Y-58837D01*
X56337Y-58900D01*
X56700Y-58900D01*
X56700Y-58892D01*
X56800Y-58892D01*
X56800Y-58900D01*
X57162Y-58900D01*
X57225Y-58837D01*
X57225Y-58800D01*
X57187Y-58708D01*
X57178Y-58700D01*
X57186Y-58691D01*
X57224Y-58599D01*
X57225Y-58500D01*
X57225Y-58300D01*
X57204Y-58250D01*
X57350Y-58250D01*
X57350Y-58249D01*
X57464Y-58227D01*
X57464Y-58227D01*
X57562Y-58162D01*
X57599Y-58124D01*
X58050Y-58574D01*
X58050Y-58850D01*
X58050Y-58900D01*
X58050Y-60149D01*
X58000Y-60149D01*
X57908Y-60187D01*
X57838Y-60258D01*
X57800Y-60350D01*
X57799Y-60449D01*
X57799Y-61249D01*
X57837Y-61341D01*
X57908Y-61411D01*
X58000Y-61449D01*
X58099Y-61450D01*
X58699Y-61450D01*
X58791Y-61412D01*
X58861Y-61341D01*
X58899Y-61249D01*
X58900Y-61150D01*
X58900Y-60350D01*
X58862Y-60258D01*
X58791Y-60188D01*
X58699Y-60150D01*
X58650Y-60150D01*
X58650Y-58974D01*
X58775Y-58849D01*
X58774Y-58899D01*
X58774Y-59099D01*
X58812Y-59191D01*
X58883Y-59261D01*
X58975Y-59299D01*
X59074Y-59300D01*
X59524Y-59300D01*
X59616Y-59262D01*
X59686Y-59191D01*
X59724Y-59099D01*
X59725Y-59000D01*
X59725Y-58800D01*
X59687Y-58708D01*
X59678Y-58700D01*
X59686Y-58691D01*
X59724Y-58599D01*
X59725Y-58500D01*
X59725Y-58349D01*
X59900Y-58524D01*
X59900Y-59275D01*
X59437Y-59737D01*
X59372Y-59835D01*
X59350Y-59950D01*
X59350Y-60149D01*
X59300Y-60149D01*
X59208Y-60187D01*
X59138Y-60258D01*
X59100Y-60350D01*
X59099Y-60449D01*
X59099Y-61249D01*
X59137Y-61341D01*
X59208Y-61411D01*
X59300Y-61449D01*
X59399Y-61450D01*
X59999Y-61450D01*
X60091Y-61412D01*
X60161Y-61341D01*
X60199Y-61249D01*
X60200Y-61150D01*
X60200Y-61100D01*
X60914Y-61100D01*
X60954Y-61197D01*
X61102Y-61344D01*
X61295Y-61424D01*
X61503Y-61425D01*
X61697Y-61345D01*
X61844Y-61197D01*
X61924Y-61004D01*
X61925Y-60796D01*
X61925Y-62730D01*
X57225Y-62730D01*
X57225Y-59099D01*
X57225Y-59062D01*
X57162Y-59000D01*
X56800Y-59000D01*
X56800Y-59237D01*
X56862Y-59300D01*
X56925Y-59300D01*
X57024Y-59299D01*
X57116Y-59261D01*
X57187Y-59191D01*
X57225Y-59099D01*
X57225Y-62730D01*
X56700Y-62730D01*
X56700Y-59237D01*
X56700Y-59000D01*
X56337Y-59000D01*
X56275Y-59062D01*
X56274Y-59099D01*
X56312Y-59191D01*
X56383Y-59261D01*
X56475Y-59299D01*
X56574Y-59300D01*
X56637Y-59300D01*
X56700Y-59237D01*
X56700Y-62730D01*
X54602Y-62730D01*
X54602Y-56953D01*
X54596Y-56615D01*
X54479Y-56331D01*
X54352Y-56267D01*
X53820Y-56800D01*
X54352Y-57332D01*
X54479Y-57268D01*
X54602Y-56953D01*
X54602Y-62730D01*
X53269Y-62730D01*
X53269Y-57505D01*
X53281Y-57529D01*
X53596Y-57652D01*
X53934Y-57646D01*
X54218Y-57529D01*
X54282Y-57402D01*
X53750Y-56870D01*
X53744Y-56876D01*
X53673Y-56805D01*
X53679Y-56800D01*
X53673Y-56794D01*
X53744Y-56723D01*
X53750Y-56729D01*
X54282Y-56197D01*
X54218Y-56070D01*
X53903Y-55947D01*
X53565Y-55953D01*
X53281Y-56070D01*
X53269Y-56094D01*
X53269Y-53269D01*
X62730Y-53269D01*
X62730Y-56094D01*
X62718Y-56070D01*
X62403Y-55947D01*
X62065Y-55953D01*
X61781Y-56070D01*
X61717Y-56197D01*
X62250Y-56729D01*
X62255Y-56723D01*
X62326Y-56794D01*
X62320Y-56800D01*
X62326Y-56805D01*
X62255Y-56876D01*
X62250Y-56870D01*
X62179Y-56941D01*
X62179Y-56800D01*
X61647Y-56267D01*
X61520Y-56331D01*
X61397Y-56646D01*
X61403Y-56984D01*
X61520Y-57268D01*
X61647Y-57332D01*
X62179Y-56800D01*
X62179Y-56941D01*
X61717Y-57402D01*
X61781Y-57529D01*
X62096Y-57652D01*
X62434Y-57646D01*
X62718Y-57529D01*
X62730Y-57505D01*
X62730Y-62730D01*
M02*
