G04 (created by PCBNEW (2013-07-07 BZR 4022)-stable) date 1/23/2014 9:04:30 AM*
%MOIN*%
G04 Gerber Fmt 3.4, Leading zero omitted, Abs format*
%FSLAX34Y34*%
G01*
G70*
G90*
G04 APERTURE LIST*
%ADD10C,0.00590551*%
%ADD11C,0.005*%
%ADD12C,0.015*%
%ADD13C,0.0026*%
%ADD14C,0.004*%
%ADD15C,0.008*%
%ADD16C,0.0035*%
G04 APERTURE END LIST*
G54D10*
G54D11*
X58900Y-57200D02*
X58900Y-59200D01*
X58900Y-59200D02*
X57100Y-59200D01*
X57100Y-59200D02*
X57100Y-57200D01*
X57100Y-57200D02*
X58900Y-57200D01*
X58300Y-57200D02*
X58300Y-57400D01*
X58300Y-57400D02*
X57800Y-57400D01*
X57800Y-57400D02*
X57800Y-57200D01*
X57000Y-54750D02*
X57000Y-55650D01*
X57000Y-55650D02*
X57650Y-55650D01*
X58350Y-54750D02*
X59000Y-54750D01*
X59000Y-54750D02*
X59000Y-55650D01*
X59000Y-55650D02*
X58350Y-55650D01*
X57650Y-54750D02*
X57000Y-54750D01*
X60000Y-61250D02*
X60000Y-60350D01*
X60000Y-60350D02*
X59350Y-60350D01*
X58650Y-61250D02*
X58000Y-61250D01*
X58000Y-61250D02*
X58000Y-60350D01*
X58000Y-60350D02*
X58650Y-60350D01*
X59350Y-61250D02*
X60000Y-61250D01*
X55400Y-53550D02*
X55400Y-54450D01*
X55400Y-54450D02*
X56050Y-54450D01*
X56750Y-53550D02*
X57400Y-53550D01*
X57400Y-53550D02*
X57400Y-54450D01*
X57400Y-54450D02*
X56750Y-54450D01*
X56050Y-53550D02*
X55400Y-53550D01*
G54D12*
X61400Y-59900D02*
X61400Y-60900D01*
X61959Y-59900D02*
G75*
G03X61959Y-59900I-559J0D01*
G74*
G01*
G54D13*
X59161Y-53939D02*
X59239Y-53939D01*
X59239Y-53939D02*
X59239Y-53861D01*
X59161Y-53861D02*
X59239Y-53861D01*
X59161Y-53939D02*
X59161Y-53861D01*
X59377Y-54175D02*
X59514Y-54175D01*
X59514Y-54175D02*
X59514Y-54077D01*
X59377Y-54077D02*
X59514Y-54077D01*
X59377Y-54175D02*
X59377Y-54077D01*
X59514Y-54175D02*
X59554Y-54175D01*
X59554Y-54175D02*
X59554Y-53704D01*
X59514Y-53704D02*
X59554Y-53704D01*
X59514Y-54175D02*
X59514Y-53704D01*
X59514Y-53684D02*
X59554Y-53684D01*
X59554Y-53684D02*
X59554Y-53625D01*
X59514Y-53625D02*
X59554Y-53625D01*
X59514Y-53684D02*
X59514Y-53625D01*
X58846Y-54175D02*
X58886Y-54175D01*
X58886Y-54175D02*
X58886Y-53704D01*
X58846Y-53704D02*
X58886Y-53704D01*
X58846Y-54175D02*
X58846Y-53704D01*
X58846Y-53684D02*
X58886Y-53684D01*
X58886Y-53684D02*
X58886Y-53625D01*
X58846Y-53625D02*
X58886Y-53625D01*
X58846Y-53684D02*
X58846Y-53625D01*
X59377Y-54175D02*
X59436Y-54175D01*
X59436Y-54175D02*
X59436Y-54077D01*
X59377Y-54077D02*
X59436Y-54077D01*
X59377Y-54175D02*
X59377Y-54077D01*
G54D14*
X59810Y-54195D02*
X58590Y-54195D01*
X58590Y-54195D02*
X58590Y-53605D01*
X58590Y-53605D02*
X59810Y-53605D01*
X59810Y-53605D02*
X59810Y-54195D01*
X58984Y-54096D02*
G75*
G03X59416Y-54095I215J196D01*
G74*
G01*
X58984Y-53703D02*
G75*
G03X58983Y-54095I215J-196D01*
G74*
G01*
X59415Y-53703D02*
G75*
G03X58983Y-53704I-215J-196D01*
G74*
G01*
X59415Y-54096D02*
G75*
G03X59416Y-53704I-215J196D01*
G74*
G01*
G54D11*
X57095Y-56632D02*
X57095Y-56996D01*
X57114Y-57039D01*
X57133Y-57060D01*
X57171Y-57082D01*
X57247Y-57082D01*
X57285Y-57060D01*
X57304Y-57039D01*
X57323Y-56996D01*
X57323Y-56632D01*
X57723Y-57082D02*
X57495Y-57082D01*
X57609Y-57082D02*
X57609Y-56632D01*
X57571Y-56696D01*
X57533Y-56739D01*
X57495Y-56760D01*
X59350Y-55792D02*
X59335Y-55807D01*
X59292Y-55821D01*
X59264Y-55821D01*
X59221Y-55807D01*
X59192Y-55778D01*
X59178Y-55750D01*
X59164Y-55692D01*
X59164Y-55650D01*
X59178Y-55592D01*
X59192Y-55564D01*
X59221Y-55535D01*
X59264Y-55521D01*
X59292Y-55521D01*
X59335Y-55535D01*
X59350Y-55550D01*
X59635Y-55821D02*
X59464Y-55821D01*
X59550Y-55821D02*
X59550Y-55521D01*
X59521Y-55564D01*
X59492Y-55592D01*
X59464Y-55607D01*
X58950Y-61721D02*
X58850Y-61578D01*
X58778Y-61721D02*
X58778Y-61421D01*
X58892Y-61421D01*
X58921Y-61435D01*
X58935Y-61450D01*
X58950Y-61478D01*
X58950Y-61521D01*
X58935Y-61550D01*
X58921Y-61564D01*
X58892Y-61578D01*
X58778Y-61578D01*
X59235Y-61721D02*
X59064Y-61721D01*
X59150Y-61721D02*
X59150Y-61421D01*
X59121Y-61464D01*
X59092Y-61492D01*
X59064Y-61507D01*
X54850Y-54121D02*
X54750Y-53978D01*
X54678Y-54121D02*
X54678Y-53821D01*
X54792Y-53821D01*
X54821Y-53835D01*
X54835Y-53850D01*
X54850Y-53878D01*
X54850Y-53921D01*
X54835Y-53950D01*
X54821Y-53964D01*
X54792Y-53978D01*
X54678Y-53978D01*
X54964Y-53850D02*
X54978Y-53835D01*
X55007Y-53821D01*
X55078Y-53821D01*
X55107Y-53835D01*
X55121Y-53850D01*
X55135Y-53878D01*
X55135Y-53907D01*
X55121Y-53950D01*
X54950Y-54121D01*
X55135Y-54121D01*
G54D15*
X62172Y-60854D02*
X62722Y-60688D01*
X62172Y-60521D01*
X62722Y-60069D02*
X62460Y-60235D01*
X62722Y-60354D02*
X62172Y-60354D01*
X62172Y-60164D01*
X62198Y-60116D01*
X62225Y-60092D01*
X62277Y-60069D01*
X62355Y-60069D01*
X62408Y-60092D01*
X62434Y-60116D01*
X62460Y-60164D01*
X62460Y-60354D01*
X62722Y-59592D02*
X62722Y-59878D01*
X62722Y-59735D02*
X62172Y-59735D01*
X62251Y-59783D01*
X62303Y-59830D01*
X62329Y-59878D01*
G54D16*
X60478Y-54021D02*
X60478Y-53721D01*
X60550Y-53721D01*
X60592Y-53735D01*
X60621Y-53764D01*
X60635Y-53792D01*
X60650Y-53850D01*
X60650Y-53892D01*
X60635Y-53950D01*
X60621Y-53978D01*
X60592Y-54007D01*
X60550Y-54021D01*
X60478Y-54021D01*
X60935Y-54021D02*
X60764Y-54021D01*
X60850Y-54021D02*
X60850Y-53721D01*
X60821Y-53764D01*
X60792Y-53792D01*
X60764Y-53807D01*
M02*
